<svg width="131" height="19" viewBox="0 0 131 19" fill="none" xmlns="http://www.w3.org/2000/svg">
<path d="M105.336 0H108.36V8.736H110.16L113.208 3.768H116.472L113.352 8.736H116.856V17.088H113.856V11.568H108.36V17.088H105.336V0Z" fill="#212223"/>
<path d="M98.5409 17.4484C97.2609 17.4484 96.0769 17.1364 94.9889 16.5124C93.9009 15.8724 93.0369 15.0164 92.3969 13.9444C91.7729 12.8564 91.4609 11.6724 91.4609 10.3924C91.4609 9.11235 91.7729 7.93635 92.3969 6.86435C93.0369 5.79235 93.9009 4.94435 94.9889 4.32035C96.0769 3.68035 97.2609 3.36035 98.5409 3.36035C99.5329 3.36035 100.469 3.56035 101.349 3.96035C102.245 4.34435 103.021 4.88035 103.677 5.56835L101.733 7.56035C101.349 7.12835 100.885 6.79235 100.341 6.55235C99.7969 6.31235 99.1969 6.19235 98.5409 6.19235C97.8049 6.19235 97.1249 6.37635 96.5009 6.74435C95.8769 7.11235 95.3809 7.61635 95.0129 8.25635C94.6609 8.89635 94.4849 9.60835 94.4849 10.3924C94.4849 11.1764 94.6609 11.8964 95.0129 12.5524C95.3809 13.1924 95.8769 13.6964 96.5009 14.0644C97.1249 14.4324 97.8049 14.6164 98.5409 14.6164C99.7569 14.6164 100.765 14.2164 101.565 13.4164L103.509 15.3844C102.869 16.0404 102.117 16.5524 101.253 16.9204C100.405 17.2724 99.5009 17.4484 98.5409 17.4484Z" fill="#212223"/>
<path d="M82.7709 17.4481C81.4429 17.4481 80.2269 17.1361 79.1229 16.5121C78.0189 15.8721 77.1469 15.0161 76.5069 13.9441C75.8669 12.8561 75.5469 11.6721 75.5469 10.3921C75.5469 9.11205 75.8669 7.94405 76.5069 6.88805C77.1469 5.83205 78.0189 5.00005 79.1229 4.39205C80.2269 3.76805 81.4429 3.45605 82.7709 3.45605C84.0989 3.45605 85.3149 3.76805 86.4189 4.39205C87.5229 5.00005 88.3949 5.84005 89.0349 6.91205C89.6749 7.98405 89.9949 9.17605 89.9949 10.4881C89.9949 10.8081 89.9629 11.1281 89.8989 11.4481H78.7629C78.9389 12.3601 79.4029 13.1201 80.1549 13.7281C80.9229 14.3361 81.8109 14.6401 82.8189 14.6401C83.6189 14.6401 84.3309 14.4641 84.9549 14.1121C85.5789 13.7441 86.0429 13.2241 86.3469 12.5521H89.6589C89.1789 14.0081 88.3149 15.1921 87.0669 16.1041C85.8349 17.0001 84.4029 17.4481 82.7709 17.4481ZM86.6589 9.16805C86.5309 8.35205 86.0989 7.66405 85.3629 7.10405C84.6269 6.54405 83.7469 6.26405 82.7229 6.26405C81.6669 6.26405 80.7789 6.53605 80.0589 7.08005C79.3389 7.62405 78.9229 8.32005 78.8109 9.16805H86.6589Z" fill="#212223"/>
<path d="M65.1496 17.4483C63.9656 17.4483 62.8856 17.1363 61.9096 16.5123C60.9336 15.8883 60.1656 15.0403 59.6056 13.9683C59.0456 12.8963 58.7656 11.7203 58.7656 10.4403C58.7656 9.16027 59.0456 7.98427 59.6056 6.91227C60.1656 5.84027 60.9336 4.99227 61.9096 4.36827C62.8856 3.74427 63.9656 3.43227 65.1496 3.43227C66.3016 3.43227 67.3256 3.71227 68.2216 4.27227C69.1336 4.83227 69.8056 5.56027 70.2376 6.45627H70.3336V0.0722656H73.3576V17.0883H70.4296V14.4963H70.3096C69.7496 15.5043 69.0216 16.2483 68.1256 16.7283C67.2456 17.2083 66.2536 17.4483 65.1496 17.4483ZM65.9416 14.6163C66.7256 14.6163 67.4216 14.4403 68.0296 14.0883C68.6376 13.7203 69.1096 13.2163 69.4456 12.5763C69.7976 11.9363 69.9736 11.2243 69.9736 10.4403C69.9736 9.64027 69.7976 8.92827 69.4456 8.30427C69.1096 7.66427 68.6376 7.16827 68.0296 6.81627C67.4216 6.44827 66.7256 6.26427 65.9416 6.26427C65.1576 6.26427 64.4616 6.44827 63.8536 6.81627C63.2456 7.16827 62.7736 7.66427 62.4376 8.30427C62.1016 8.92827 61.9336 9.64027 61.9336 10.4403C61.9336 11.2243 62.1016 11.9363 62.4376 12.5763C62.7736 13.2163 63.2456 13.7203 63.8536 14.0883C64.4616 14.4403 65.1576 14.6163 65.9416 14.6163Z" fill="#212223"/>
<path d="M50.2109 3.81641H58.2029V6.62441H53.2349V17.0884H50.2109V3.81641Z" fill="#212223"/>
<path d="M40.9544 17.4485C39.6744 17.4485 38.4904 17.1365 37.4024 16.5125C36.3304 15.8725 35.4744 15.0165 34.8344 13.9445C34.2104 12.8725 33.8984 11.7125 33.8984 10.4645C33.8984 9.18447 34.2104 8.00847 34.8344 6.93647C35.4744 5.86447 36.3304 5.02447 37.4024 4.41647C38.4904 3.79247 39.6744 3.48047 40.9544 3.48047C42.2344 3.48047 43.4104 3.79247 44.4824 4.41647C45.5704 5.02447 46.4264 5.86447 47.0504 6.93647C47.6904 8.00847 48.0104 9.18447 48.0104 10.4645C48.0104 11.7125 47.6904 12.8725 47.0504 13.9445C46.4264 15.0165 45.5704 15.8725 44.4824 16.5125C43.4104 17.1365 42.2344 17.4485 40.9544 17.4485ZM40.9544 14.6165C41.7064 14.6165 42.3944 14.4405 43.0184 14.0885C43.6424 13.7365 44.1304 13.2485 44.4824 12.6245C44.8504 11.9845 45.0344 11.2645 45.0344 10.4645C45.0344 9.63247 44.8504 8.90447 44.4824 8.28047C44.1304 7.64047 43.6424 7.15247 43.0184 6.81647C42.3944 6.48047 41.7064 6.31247 40.9544 6.31247C40.2024 6.31247 39.5224 6.48047 38.9144 6.81647C38.3064 7.15247 37.8184 7.64047 37.4504 8.28047C37.0984 8.90447 36.9224 9.63247 36.9224 10.4645C36.9224 11.2645 37.0984 11.9845 37.4504 12.6245C37.8184 13.2485 38.3064 13.7365 38.9144 14.0885C39.5384 14.4405 40.2184 14.6165 40.9544 14.6165Z" fill="#212223"/>
<path d="M27.3994 6.62427H25.3594V3.81627H27.3994V0.0722656H30.3994V3.81627H32.5114V6.62427H30.3994V14.2803H32.4394V17.0883H27.3994V6.62427Z" fill="#212223"/>
<path d="M18.1099 17.4484C17.0219 17.4484 16.0459 17.2164 15.1819 16.7524C14.3179 16.2884 13.6379 15.6404 13.1419 14.8084C12.6619 13.9604 12.4219 13.0004 12.4219 11.9284V3.81641H15.3979V12.0964C15.3979 12.9124 15.6459 13.5444 16.1419 13.9924C16.6379 14.4244 17.2939 14.6404 18.1099 14.6404C18.9419 14.6404 19.5899 14.4164 20.0539 13.9684C20.5339 13.5044 20.7739 12.8804 20.7739 12.0964V3.81641H23.7979V11.9284C23.7979 13.0004 23.5499 13.9604 23.0539 14.8084C22.5739 15.6404 21.9019 16.2884 21.0379 16.7524C20.1739 17.2164 19.1979 17.4484 18.1099 17.4484Z" fill="#212223"/>
<path d="M4.2 2.85627H0V0.0722656H11.4V2.85627H7.2V17.1123H4.2V2.85627Z" fill="#212223"/>
<path d="M122.859 0L123.533 2.50346C123.904 3.88003 124.979 4.95531 126.356 5.32595L128.859 6L126.356 6.67405C124.979 7.04469 123.904 8.11997 123.533 9.49654L122.859 12L122.185 9.49654C121.815 8.11997 120.739 7.04469 119.363 6.67405L116.859 6L119.363 5.32595C120.739 4.95531 121.815 3.88003 122.185 2.50346L122.859 0Z" fill="#212223"/>
</svg>
