<svg width="30" height="30" viewBox="0 0 30 30" fill="none" xmlns="http://www.w3.org/2000/svg">
<path d="M14.5684 1.01012C14.6682 0.545054 15.3318 0.545054 15.4316 1.01011V1.01011C16.8904 7.80319 22.1968 13.1096 28.9899 14.5684V14.5684C29.4549 14.6682 29.4549 15.3318 28.9899 15.4316V15.4316C22.1968 16.8904 16.8904 22.1968 15.4316 28.9899V28.9899C15.3318 29.4549 14.6682 29.4549 14.5684 28.9899V28.9899C13.1096 22.1968 7.80319 16.8904 1.01012 15.4316V15.4316C0.545054 15.3318 0.545054 14.6682 1.01011 14.5684V14.5684C7.80319 13.1096 13.1096 7.80319 14.5684 1.01012V1.01012Z" fill="white"/>
</svg>
