<svg width="170" height="170" viewBox="0 0 170 170" fill="none" xmlns="http://www.w3.org/2000/svg">
<circle cx="85" cy="85" r="85" fill="#212223"/>
<path d="M106 91L85 112L64 91" stroke="white" stroke-width="4" stroke-linecap="round" stroke-linejoin="round"/>
<path d="M85 112V58" stroke="white" stroke-width="4" stroke-linecap="round" stroke-linejoin="round"/>
<path d="M69.6994 141.91C70.7785 142.175 71.7119 142.688 72.4995 143.448C73.2763 144.205 73.8203 145.104 74.1313 146.143C74.429 147.191 74.4452 148.254 74.18 149.333C73.9121 150.423 73.4048 151.358 72.658 152.137C71.8979 152.925 70.9994 153.469 69.9626 153.769C68.9124 154.077 67.8477 154.099 66.7686 153.834C65.9138 153.624 65.1198 153.259 64.3866 152.738C63.6507 152.229 63.1239 151.629 62.8063 150.939L64.8823 149.546C65.1724 150.025 65.4994 150.4 65.8634 150.671C66.2274 150.942 66.7353 151.157 67.387 151.318C67.9747 151.462 68.551 151.445 69.1161 151.267C69.6704 151.086 70.1562 150.769 70.5733 150.316C70.9905 149.864 71.2792 149.311 71.4394 148.66C71.5969 148.019 71.5958 147.401 71.436 146.806C71.2762 146.212 70.9873 145.705 70.5694 145.285C70.1514 144.865 69.654 144.584 69.077 144.442C68.5641 144.316 68.1236 144.264 67.7554 144.287C67.3846 144.321 67.0089 144.444 66.6281 144.656L66.309 145.954L68.5688 146.509L67.9385 149.074L62.9702 147.853L64.0811 143.333C64.3921 143.036 64.8166 142.738 65.3544 142.439C65.8897 142.152 66.5373 141.937 67.2972 141.795C68.0439 141.661 68.8446 141.7 69.6994 141.91Z" fill="white"/>
<path d="M58.1504 150.699L51.2325 147.532L52.3179 145.161L56.6697 147.153L57.4803 145.382L53.9988 143.789L55.098 141.388L58.5794 142.981L59.3969 141.196L55.0451 139.203L56.1373 136.817L63.0552 139.984L58.1504 150.699Z" fill="white"/>
<path d="M47.7941 142.219L50.0833 143.754L48.6218 145.933L41.7133 141.3L43.1748 139.121L45.4502 140.647L50.5516 133.039L52.8955 134.611L47.7941 142.219Z" fill="white"/>
<path d="M40.7203 123.609C41.2064 124.163 41.5317 124.793 41.6961 125.497C41.8533 126.194 41.8402 126.871 41.6568 127.53C41.4651 128.195 41.117 128.75 40.6124 129.192L38.7731 127.095C39.0212 126.878 39.1368 126.601 39.1198 126.264C39.0873 125.927 38.9477 125.618 38.701 125.336C38.4108 125.006 38.127 124.816 37.8495 124.766C37.5638 124.724 37.3093 124.801 37.086 124.997C36.9123 125.149 36.8012 125.298 36.7527 125.443C36.6887 125.587 36.6916 125.782 36.7612 126.028C36.8226 126.282 36.9586 126.645 37.1693 127.119C37.4683 127.794 37.6879 128.369 37.8282 128.846C37.9686 129.323 37.9801 129.862 37.8629 130.463C37.7301 131.062 37.3618 131.627 36.758 132.156C36.2535 132.599 35.6742 132.873 35.0202 132.978C34.3589 133.075 33.7052 132.997 33.059 132.745C32.3973 132.491 31.8197 132.083 31.3264 131.52C30.8475 130.974 30.5326 130.365 30.3817 129.692C30.2235 129.012 30.2434 128.35 30.4413 127.708C30.6237 127.065 30.9672 126.522 31.4717 126.08L33.3219 128.189C33.0572 128.421 32.9313 128.678 32.944 128.96C32.9485 129.248 33.0741 129.533 33.3208 129.815C33.5893 130.121 33.8503 130.301 34.104 130.357C34.3421 130.412 34.5563 130.355 34.7465 130.188C34.8623 130.087 34.9434 129.979 34.9899 129.865C35.0363 129.751 35.0402 129.572 35.0016 129.328C34.963 129.084 34.8524 128.749 34.6697 128.324C34.6292 128.228 34.4569 127.823 34.1527 127.109C33.8403 126.402 33.7587 125.684 33.9078 124.953C34.057 124.222 34.4583 123.57 35.1117 122.997C35.6493 122.525 36.2607 122.237 36.9458 122.134C37.6226 122.038 38.2996 122.117 38.9768 122.372C39.6458 122.634 40.2269 123.047 40.7203 123.609Z" fill="white"/>
<path d="M27.911 122.065L29.372 124.402L27.1468 125.793L22.7377 118.739L24.9628 117.348L26.4151 119.672L34.182 114.816L35.678 117.209L27.911 122.065Z" fill="white"/>
<path d="M20.0737 112.748L18.8676 109.8L28.2021 101.452L29.3332 104.217L28.1827 105.241L29.9137 109.472L31.4516 109.395L32.5827 112.16L20.0737 112.748ZM26.0949 107.111L23.5314 109.301C23.1884 109.596 22.9132 109.81 22.7059 109.942L22.7246 109.988C23.0162 109.916 23.3572 109.878 23.7474 109.873L27.1259 109.632L26.0949 107.111Z" fill="white"/>
<path d="M16.6976 102.853L15.8731 98.8774C15.7211 98.1448 15.7592 97.4346 15.9874 96.7468C16.2133 96.0482 16.6018 95.4563 17.1529 94.9712C17.691 94.4776 18.3263 94.1547 19.0589 94.0028C19.7269 93.8643 20.3787 93.892 21.0145 94.086C21.6481 94.2692 22.2178 94.578 22.7237 95.0125L26.5191 92.1015L27.1626 95.2042L24.0173 97.5926L24.1816 98.3845L27.6721 97.6605L28.2453 100.424L16.6976 102.853ZM21.3351 97.7445C21.2614 97.3889 21.0707 97.1195 20.7629 96.9361C20.4552 96.7527 20.0805 96.7068 19.6388 96.7985C19.1971 96.8901 18.8662 97.0823 18.646 97.3752C18.4258 97.6681 18.3526 97.9923 18.4264 98.3478L18.671 99.5275L21.5798 98.9241L21.3351 97.7445Z" fill="white"/>
<path d="M17.3589 88.8984L17.4654 91.6525L14.8432 91.7539L14.5218 83.4421L17.144 83.3407L17.2499 86.0783L26.4027 85.7245L26.5117 88.5445L17.3589 88.8984Z" fill="white"/>
<path d="M14.8621 79.714L15.7936 72.163L18.3816 72.4823L17.7956 77.2324L19.7284 77.4708L20.1972 73.6707L22.818 73.994L22.3492 77.7941L24.2984 78.0346L24.8844 73.2845L27.4887 73.6058L26.5572 81.1568L14.8621 79.714Z" fill="white"/>
<path d="M16.8479 67.8143L18.0532 64.0066C18.3753 62.9891 18.9225 62.1352 19.695 61.4449C20.4707 60.7441 21.3736 60.2798 22.4037 60.0518C23.4232 59.8206 24.4417 59.866 25.4592 60.1881C26.4662 60.5069 27.3253 61.0558 28.0366 61.8349C28.7374 62.6106 29.2034 63.5083 29.4346 64.5278C29.6692 65.5368 29.6254 66.5501 29.3033 67.5676L28.0981 71.3754L16.8479 67.8143ZM26.7858 66.7707C26.9518 66.2462 26.9682 65.7206 26.8349 65.1937C26.705 64.6563 26.4455 64.1818 26.0565 63.7701C25.6674 63.3585 25.1845 63.0613 24.6075 62.8787C24.0201 62.6928 23.4489 62.6562 22.8938 62.769C22.3283 62.8785 21.8378 63.1156 21.4223 63.4804C21.0101 63.8346 20.721 64.274 20.555 64.7985L20.1914 65.9471L26.4223 67.9193L26.7858 66.7707Z" fill="white"/>
<path d="M41.5113 46.801C40.7907 47.647 39.9142 48.2517 38.8818 48.6153C37.8566 48.9705 36.8096 49.0543 35.7409 48.8666C34.671 48.6634 33.7131 48.2016 32.8671 47.4809C32.0128 46.7532 31.4045 45.8809 31.0421 44.864C30.6786 43.8317 30.5948 42.7847 30.7908 41.7232C30.9856 40.6461 31.4433 39.6846 32.1639 38.8387C32.7347 38.1686 33.4168 37.6223 34.2104 37.1998C34.9955 36.7702 35.7676 36.5679 36.5267 36.593L36.8422 39.0731C36.2838 39.1178 35.8021 39.2422 35.3969 39.4463C34.9918 39.6505 34.5716 40.008 34.1364 40.5189C33.744 40.9796 33.501 41.5024 33.4073 42.0875C33.3208 42.6642 33.3864 43.2404 33.6041 43.8161C33.8219 44.3919 34.1863 44.8973 34.6972 45.3326C35.1997 45.7606 35.7525 46.0364 36.3556 46.1599C36.9586 46.2833 37.5415 46.2523 38.1042 46.0668C38.6669 45.8813 39.1409 45.5624 39.5262 45.1101C39.8687 44.708 40.1122 44.3373 40.2567 43.998C40.3929 43.6515 40.4514 43.2604 40.4322 42.8249L39.4145 41.958L37.9055 43.7295L35.8953 42.0172L39.213 38.1225L42.7559 41.1404C42.8825 41.5518 42.9586 42.0647 42.9844 42.6792C43.0018 43.2866 42.9036 43.9618 42.6899 44.7047C42.4749 45.4322 42.0821 46.1309 41.5113 46.801Z" fill="white"/>
<path d="M38.828 32.5348L44.7585 27.7688L46.392 29.8014L42.6613 32.7995L43.8812 34.3175L46.8658 31.919L48.5199 33.9774L45.5353 36.3759L46.7656 37.9068L50.4963 34.9086L52.1401 36.9541L46.2095 41.7201L38.828 32.5348Z" fill="white"/>
<path d="M51.0486 27.0786L48.6507 28.4374L47.357 26.1544L54.5937 22.0535L55.8875 24.3365L53.5039 25.6872L58.0199 33.6563L55.5645 35.0477L51.0486 27.0786Z" fill="white"/>
<path d="M70.8584 29.0908C70.1452 29.2772 69.4367 29.286 68.7331 29.1173C68.0401 28.9458 67.4403 28.6305 66.9337 28.1715C66.4244 27.7019 66.0849 27.1424 65.9153 26.493L68.6139 25.788C68.6973 26.1074 68.8932 26.3348 69.2015 26.4703C69.5177 26.5924 69.8568 26.6062 70.2187 26.5116C70.6445 26.4004 70.9416 26.2318 71.11 26.0058C71.2757 25.7693 71.3209 25.5072 71.2458 25.2198C71.1874 24.9963 71.1043 24.8304 70.9964 24.7221C70.8964 24.6004 70.7207 24.5155 70.4693 24.4675C70.2152 24.4088 69.8291 24.3675 69.3111 24.3436C68.5742 24.3087 67.9611 24.2471 67.4718 24.1588C66.9825 24.0706 66.4957 23.8396 66.0114 23.4657C65.535 23.0785 65.1952 22.4963 64.9922 21.7192C64.8226 21.0698 64.8371 20.4292 65.036 19.7973C65.2454 19.1626 65.6079 18.613 66.1234 18.1486C66.6467 17.6707 67.2703 17.3372 67.9942 17.1481C68.6968 16.9645 69.3826 16.9559 70.0515 17.1223C70.7311 17.286 71.3135 17.6 71.7988 18.0646C72.2919 18.5157 72.6233 19.066 72.7929 19.7154L70.0784 20.4245C69.9894 20.0839 69.8162 19.8562 69.5588 19.7415C69.2986 19.6162 68.9875 19.6008 68.6256 19.6953C68.2317 19.7982 67.9531 19.9506 67.7898 20.1525C67.6343 20.3409 67.5886 20.5576 67.6525 20.8024C67.6915 20.9515 67.7515 21.0722 67.8325 21.1648C67.9135 21.2573 68.0719 21.3411 68.3075 21.416C68.5431 21.4909 68.8919 21.5419 69.3539 21.569C69.458 21.5759 69.8973 21.6033 70.6718 21.6512C71.4434 21.6884 72.1225 21.9374 72.7092 22.3983C73.2958 22.8591 73.699 23.51 73.9187 24.351C74.0995 25.0429 74.0826 25.7183 73.868 26.377C73.6507 27.0251 73.2764 27.5949 72.7452 28.0862C72.2112 28.5668 71.5823 28.9017 70.8584 29.0908Z" fill="white"/>
<path d="M77.9756 18.329L75.2316 18.5881L74.985 15.9756L83.2661 15.1936L83.5128 17.8061L80.7853 18.0637L81.6463 27.1828L78.8367 27.4481L77.9756 18.329Z" fill="white"/>
<path d="M89.8172 15.495L92.9932 15.7375L96.2745 27.8227L93.296 27.5953L92.8964 26.1082L88.3381 25.7601L87.7174 27.1693L84.7389 26.9419L89.8172 15.495ZM92.1595 23.4036L91.3501 20.1307C91.2402 19.692 91.1725 19.3503 91.147 19.1056L91.0976 19.1018C91.0311 19.3946 90.9128 19.7166 90.7425 20.0678L89.4443 23.1963L92.1595 23.4036Z" fill="white"/>
<path d="M100.178 16.9119L104.101 17.9557C104.824 18.1481 105.442 18.5003 105.955 19.0124C106.478 19.5274 106.833 20.1399 107.02 20.8499C107.22 21.5522 107.224 22.2648 107.032 22.9878C106.857 23.6471 106.54 24.2174 106.081 24.6989C105.634 25.1833 105.102 25.5542 104.487 25.8119L105.39 30.5092L102.327 29.6945L101.601 25.8125L100.82 25.6046L99.903 29.0496L97.1757 28.324L100.178 16.9119ZM102.667 23.3465C103.018 23.4399 103.344 23.3901 103.646 23.1971C103.948 23.0042 104.157 22.6897 104.273 22.2538C104.389 21.8178 104.365 21.4358 104.202 21.1078C104.039 20.7797 103.782 20.569 103.431 20.4757L102.266 20.1659L101.503 23.0368L102.667 23.3465Z" fill="white"/>
<path d="M112.355 23.7551L109.845 22.6165L110.929 20.2267L118.504 23.6632L117.42 26.0529L114.925 24.9211L111.141 33.2625L108.571 32.0965L112.355 23.7551Z" fill="white"/>
<path d="M121.685 25.6353L128.019 29.8511L126.574 32.0218L122.59 29.3698L121.511 30.991L124.698 33.1126L123.235 35.3108L120.047 33.1891L118.959 34.824L122.943 37.4761L121.489 39.6605L115.156 35.4447L121.685 25.6353Z" fill="white"/>
<path d="M131.432 32.7468L134.297 35.5302C135.062 36.274 135.58 37.1458 135.851 38.1457C136.13 39.1532 136.141 40.1685 135.883 41.1914C135.633 42.2065 135.136 43.0967 134.393 43.8621C133.656 44.6196 132.781 45.1418 131.766 45.4286C130.758 45.7076 129.747 45.722 128.732 45.472C127.724 45.2296 126.838 44.7366 126.073 43.9928L123.209 41.2093L131.432 32.7468ZM127.913 42.0991C128.308 42.4825 128.77 42.7326 129.301 42.8495C129.84 42.9741 130.38 42.9547 130.923 42.7913C131.465 42.6279 131.947 42.3293 132.369 41.8953C132.798 41.4534 133.087 40.9591 133.234 40.4123C133.39 39.8577 133.398 39.3129 133.258 38.778C133.126 38.2508 132.862 37.7955 132.468 37.4121L131.604 36.5725L127.049 41.2594L127.913 42.0991Z" fill="white"/>
<path d="M139.167 64.207C138.733 63.1838 138.585 62.1292 138.723 61.0434C138.864 59.9676 139.258 58.9941 139.905 58.1227C140.566 57.2572 141.408 56.6077 142.431 56.1743C143.465 55.7365 144.517 55.5835 145.589 55.7151C146.674 55.8525 147.648 56.2467 148.509 56.8975C149.385 57.5542 150.039 58.3942 150.473 59.4174C150.816 60.2279 150.999 61.0825 151.021 61.9812C151.054 62.8756 150.888 63.6566 150.526 64.3239L148.167 63.4949C148.378 62.9757 148.482 62.4892 148.481 62.0356C148.48 61.5819 148.349 61.0461 148.087 60.4281C147.851 59.8709 147.492 59.4194 147.011 59.0735C146.534 58.7378 145.99 58.5383 145.378 58.4751C144.765 58.4118 144.15 58.5111 143.532 58.7729C142.924 59.0304 142.43 59.4011 142.05 59.8849C141.669 60.3687 141.436 60.9037 141.349 61.4899C141.263 62.0761 141.336 62.6428 141.568 63.1899C141.774 63.6761 141.996 64.0599 142.235 64.3412C142.483 64.6182 142.807 64.8456 143.205 65.0236L144.436 64.5021L143.528 62.3594L145.959 61.3294L147.955 66.0403L143.67 67.8557C143.245 67.7846 142.753 67.6229 142.192 67.3706C141.641 67.114 141.081 66.7238 140.513 66.1999C139.959 65.6818 139.51 65.0175 139.167 64.207Z" fill="white"/>
<path d="M153.125 68.2018L154.729 75.6391L152.18 76.1889L151.171 71.5103L149.267 71.9209L150.074 75.6637L147.493 76.2204L146.686 72.4775L144.766 72.8916L145.775 77.5701L143.21 78.1234L141.606 70.686L153.125 68.2018Z" fill="white"/>
<path d="M152.532 81.57L152.391 78.8174L155.012 78.6836L155.436 86.9908L152.815 87.1246L152.676 84.3885L143.528 84.8556L143.384 82.0371L152.532 81.57Z" fill="white"/>
<path d="M141.858 98.3771C142.011 97.6559 142.32 97.0186 142.786 96.4651C143.25 95.9224 143.801 95.5274 144.438 95.2802C145.086 95.0352 145.738 94.9823 146.395 95.1216L145.816 97.8501C145.493 97.7816 145.202 97.8548 144.943 98.0698C144.692 98.2977 144.528 98.5947 144.45 98.9607C144.359 99.3912 144.377 99.7323 144.503 99.9841C144.641 100.238 144.855 100.396 145.145 100.458C145.371 100.506 145.557 100.506 145.702 100.458C145.856 100.423 146.01 100.304 146.166 100.101C146.332 99.8996 146.542 99.573 146.795 99.1206C147.157 98.4774 147.486 97.9569 147.785 97.5589C148.083 97.161 148.507 96.8293 149.058 96.5638C149.618 96.3114 150.291 96.2685 151.077 96.4351C151.733 96.5744 152.299 96.8744 152.775 97.3353C153.249 97.8069 153.578 98.3771 153.762 99.0461C153.955 99.7281 153.974 100.435 153.818 101.167C153.668 101.877 153.368 102.494 152.92 103.018C152.469 103.552 151.927 103.932 151.294 104.158C150.67 104.396 150.03 104.446 149.373 104.307L149.955 101.562C150.3 101.635 150.581 101.582 150.799 101.404C151.027 101.227 151.181 100.956 151.258 100.59C151.343 100.192 151.331 99.8746 151.224 99.6381C151.125 99.4147 150.952 99.2767 150.704 99.2242C150.554 99.1923 150.419 99.1918 150.3 99.2228C150.181 99.2538 150.035 99.3578 149.862 99.5349C149.69 99.712 149.488 100.001 149.257 100.402C149.204 100.492 148.983 100.872 148.593 101.543C148.214 102.216 147.687 102.712 147.012 103.03C146.337 103.348 145.575 103.417 144.724 103.237C144.025 103.088 143.429 102.77 142.936 102.284C142.454 101.799 142.112 101.209 141.911 100.514C141.72 99.8213 141.703 99.1089 141.858 98.3771Z" fill="white"/>
<path d="M148.285 109.563L149.283 106.994L151.729 107.944L148.718 115.698L146.272 114.748L147.264 112.194L138.725 108.879L139.747 106.248L148.285 109.563Z" fill="white"/>
<path d="M145.514 121.42L143.874 124.15L131.6 121.67L133.137 119.109L134.646 119.418L136.999 115.498L136.018 114.312L137.555 111.751L145.514 121.42ZM137.394 119.971L140.683 120.713C141.124 120.812 141.46 120.904 141.69 120.991L141.716 120.949C141.484 120.758 141.249 120.508 141.011 120.198L138.796 117.636L137.394 119.971Z" fill="white"/>
<path d="M139.611 130.045L136.92 133.085C136.424 133.646 135.832 134.04 135.145 134.269C134.45 134.506 133.743 134.549 133.025 134.398C132.307 134.263 131.668 133.947 131.108 133.451C130.597 132.999 130.229 132.46 130.004 131.835C129.772 131.218 129.678 130.576 129.723 129.911L125.12 128.613L127.22 126.24L131.016 127.33L131.552 126.725L128.883 124.362L130.753 122.249L139.611 130.045ZM132.743 129.388C132.502 129.66 132.401 129.974 132.438 130.33C132.475 130.687 132.663 131.014 133.001 131.313C133.338 131.612 133.69 131.762 134.057 131.763C134.423 131.764 134.727 131.629 134.967 131.357L135.766 130.455L133.542 128.486L132.743 129.388Z" fill="white"/>
<path d="M128.035 137.868L130.178 136.134L131.829 138.174L125.363 143.406L123.712 141.366L125.842 139.643L120.079 132.523L122.273 130.747L128.035 137.868Z" fill="white"/>
<path d="M122.173 145.368L115.566 149.141L114.273 146.877L118.429 144.503L117.463 142.812L114.138 144.711L112.828 142.418L116.153 140.519L115.179 138.814L111.023 141.188L109.722 138.909L116.328 135.135L122.173 145.368Z" fill="white"/>
<path d="M111.449 150.895L107.677 152.209C106.67 152.56 105.658 152.632 104.643 152.427C103.617 152.225 102.704 151.779 101.905 151.091C101.11 150.413 100.537 149.569 100.186 148.562C99.8381 147.564 99.7636 146.547 99.962 145.511C100.164 144.485 100.604 143.575 101.282 142.779C101.95 141.987 102.788 141.416 103.796 141.065L107.568 139.751L111.449 150.895ZM104.665 143.559C104.145 143.74 103.714 144.041 103.372 144.463C103.019 144.889 102.794 145.381 102.697 145.939C102.601 146.497 102.652 147.062 102.851 147.633C103.053 148.215 103.366 148.695 103.789 149.072C104.215 149.459 104.698 149.71 105.239 149.825C105.77 149.943 106.295 149.912 106.814 149.731L107.952 149.334L105.802 143.162L104.665 143.559Z" fill="white"/>
</svg>
