<svg width="38" height="38" viewBox="0 0 38 38" fill="none" xmlns="http://www.w3.org/2000/svg">
<path d="M18.4335 0.638276C18.5645 0.0278834 19.4355 0.0278826 19.5665 0.638275V0.638275C21.4811 9.55418 28.4458 16.5189 37.3617 18.4335V18.4335C37.9721 18.5645 37.9721 19.4355 37.3617 19.5665V19.5665C28.4458 21.4811 21.4811 28.4458 19.5665 37.3617V37.3617C19.4355 37.9721 18.5645 37.9721 18.4335 37.3617V37.3617C16.5189 28.4458 9.55418 21.4811 0.638276 19.5665V19.5665C0.0278834 19.4355 0.0278826 18.5645 0.638275 18.4335V18.4335C9.55418 16.5189 16.5189 9.55418 18.4335 0.638276V0.638276Z" fill="#212223"/>
</svg>
