<svg width="100" height="100" viewBox="0 0 100 100" fill="none" xmlns="http://www.w3.org/2000/svg">
<path d="M49.0223 4.55306C49.2485 3.49966 50.7515 3.49966 50.9777 4.55306L53.4099 15.8796C56.7141 31.2664 68.7336 43.2859 84.1204 46.5901L95.4469 49.0223C96.5003 49.2485 96.5003 50.7515 95.4469 50.9777L84.1204 53.4099C68.7336 56.7141 56.7141 68.7336 53.4099 84.1204L50.9777 95.4469C50.7515 96.5003 49.2485 96.5003 49.0223 95.4469L46.5901 84.1204C43.2859 68.7336 31.2664 56.7141 15.8796 53.4099L4.55306 50.9777C3.49966 50.7515 3.49966 49.2485 4.55306 49.0223L15.8796 46.5901C31.2664 43.2859 43.2859 31.2664 46.5901 15.8796L49.0223 4.55306Z" fill="#006C99"/>
</svg>
