<svg width="158" height="35" viewBox="0 0 158 35" fill="none" xmlns="http://www.w3.org/2000/svg">
<path d="M5.30069 12.8234H0.231724V9.46345H13.9903V12.8234H8.92138V30.029H5.30069V12.8234ZM22.0914 30.4345C20.7783 30.4345 19.6004 30.1545 18.5576 29.5945C17.5149 29.0345 16.6942 28.2524 16.0955 27.2483C15.5162 26.2248 15.2266 25.0662 15.2266 23.7724V13.9821H18.8183V23.9752C18.8183 24.96 19.1176 25.7228 19.7162 26.2634C20.3149 26.7848 21.1066 27.0455 22.0914 27.0455C23.0955 27.0455 23.8776 26.7752 24.4376 26.2345C25.0169 25.6745 25.3066 24.9214 25.3066 23.9752V13.9821H28.9562V23.7724C28.9562 25.0662 28.6569 26.2248 28.0583 27.2483C27.479 28.2524 26.668 29.0345 25.6252 29.5945C24.5824 30.1545 23.4045 30.4345 22.0914 30.4345ZM33.3027 17.371H30.8406V13.9821H33.3027V9.46345H36.9233V13.9821H39.4723V17.371H36.9233V26.611H39.3854V30H33.3027V17.371ZM49.6609 30.4345C48.1161 30.4345 46.6871 30.0579 45.374 29.3048C44.0802 28.5324 43.0471 27.4993 42.2747 26.2055C41.5216 24.9117 41.1451 23.5117 41.1451 22.0055C41.1451 20.4607 41.5216 19.0414 42.2747 17.7476C43.0471 16.4538 44.0802 15.44 45.374 14.7062C46.6871 13.9531 48.1161 13.5766 49.6609 13.5766C51.2058 13.5766 52.6251 13.9531 53.9189 14.7062C55.232 15.44 56.2651 16.4538 57.0182 17.7476C57.7906 19.0414 58.1768 20.4607 58.1768 22.0055C58.1768 23.5117 57.7906 24.9117 57.0182 26.2055C56.2651 27.4993 55.232 28.5324 53.9189 29.3048C52.6251 30.0579 51.2058 30.4345 49.6609 30.4345ZM49.6609 27.0166C50.5685 27.0166 51.3989 26.8041 52.152 26.3793C52.9051 25.9545 53.494 25.3655 53.9189 24.6124C54.363 23.84 54.5851 22.971 54.5851 22.0055C54.5851 21.0014 54.363 20.1228 53.9189 19.3697C53.494 18.5972 52.9051 18.0083 52.152 17.6028C51.3989 17.1972 50.5685 16.9945 49.6609 16.9945C48.7533 16.9945 47.9326 17.1972 47.1989 17.6028C46.4651 18.0083 45.8761 18.5972 45.432 19.3697C45.0071 20.1228 44.7947 21.0014 44.7947 22.0055C44.7947 22.971 45.0071 23.84 45.432 24.6124C45.8761 25.3655 46.4651 25.9545 47.1989 26.3793C47.952 26.8041 48.7726 27.0166 49.6609 27.0166ZM60.8335 13.9821H70.479V17.371H64.4831V30H60.8335V13.9821ZM78.862 30.4345C77.433 30.4345 76.1296 30.0579 74.9517 29.3048C73.7737 28.5517 72.8468 27.5283 72.171 26.2345C71.4951 24.9407 71.1572 23.5214 71.1572 21.9766C71.1572 20.4317 71.4951 19.0124 72.171 17.7186C72.8468 16.4248 73.7737 15.4014 74.9517 14.6483C76.1296 13.8952 77.433 13.5186 78.862 13.5186C80.2524 13.5186 81.4882 13.8566 82.5696 14.5324C83.6703 15.2083 84.4813 16.0869 85.0027 17.1683H85.1186V9.46345H88.7682V30H85.2344V26.8717H85.0896C84.4137 28.0883 83.5351 28.9862 82.4537 29.5655C81.3917 30.1448 80.1944 30.4345 78.862 30.4345ZM79.8179 27.0166C80.7641 27.0166 81.6041 26.8041 82.3379 26.3793C83.0717 25.9352 83.6413 25.3269 84.0468 24.5545C84.4717 23.7821 84.6841 22.9228 84.6841 21.9766C84.6841 21.011 84.4717 20.1517 84.0468 19.3986C83.6413 18.6262 83.0717 18.0276 82.3379 17.6028C81.6041 17.1586 80.7641 16.9366 79.8179 16.9366C78.8717 16.9366 78.0317 17.1586 77.2979 17.6028C76.5641 18.0276 75.9944 18.6262 75.5889 19.3986C75.1834 20.1517 74.9806 21.011 74.9806 21.9766C74.9806 22.9228 75.1834 23.7821 75.5889 24.5545C75.9944 25.3269 76.5641 25.9352 77.2979 26.3793C78.0317 26.8041 78.8717 27.0166 79.8179 27.0166ZM100.129 30.4345C98.5263 30.4345 97.0587 30.0579 95.7263 29.3048C94.3939 28.5324 93.3415 27.4993 92.569 26.2055C91.7966 24.8924 91.4104 23.4634 91.4104 21.9186C91.4104 20.3738 91.7966 18.9641 92.569 17.6897C93.3415 16.4152 94.3939 15.411 95.7263 14.6772C97.0587 13.9241 98.5263 13.5476 100.129 13.5476C101.732 13.5476 103.199 13.9241 104.532 14.6772C105.864 15.411 106.917 16.4248 107.689 17.7186C108.461 19.0124 108.848 20.451 108.848 22.0345C108.848 22.4207 108.809 22.8069 108.732 23.1931H95.2918C95.5042 24.2938 96.0642 25.211 96.9718 25.9448C97.8987 26.6786 98.9704 27.0455 100.187 27.0455C101.152 27.0455 102.012 26.8331 102.765 26.4083C103.518 25.9641 104.078 25.3366 104.445 24.5255H108.442C107.863 26.2828 106.82 27.7117 105.314 28.8124C103.827 29.8938 102.099 30.4345 100.129 30.4345ZM104.821 20.4414C104.667 19.4566 104.146 18.6262 103.257 17.9503C102.369 17.2745 101.307 16.9366 100.071 16.9366C98.7966 16.9366 97.7249 17.2648 96.8559 17.9214C95.987 18.5779 95.4849 19.4179 95.3497 20.4414H104.821ZM119.162 30.4345C117.617 30.4345 116.188 30.0579 114.875 29.3048C113.562 28.5324 112.519 27.4993 111.747 26.2055C110.994 24.8924 110.617 23.4634 110.617 21.9186C110.617 20.3738 110.994 18.9545 111.747 17.6607C112.519 16.3669 113.562 15.3434 114.875 14.5903C116.188 13.8179 117.617 13.4317 119.162 13.4317C120.359 13.4317 121.489 13.6731 122.551 14.1559C123.632 14.6193 124.569 15.2662 125.36 16.0966L123.014 18.5007C122.551 17.9793 121.991 17.5738 121.334 17.2841C120.678 16.9945 119.954 16.8497 119.162 16.8497C118.274 16.8497 117.453 17.0717 116.7 17.5159C115.947 17.96 115.348 18.5683 114.904 19.3407C114.479 20.1131 114.267 20.9724 114.267 21.9186C114.267 22.8648 114.479 23.7338 114.904 24.5255C115.348 25.2979 115.947 25.9062 116.7 26.3503C117.453 26.7945 118.274 27.0166 119.162 27.0166C120.629 27.0166 121.846 26.5338 122.812 25.5683L125.158 27.9434C124.385 28.7352 123.478 29.3531 122.435 29.7972C121.412 30.2221 120.32 30.4345 119.162 30.4345ZM127.364 9.37655H131.013V19.92H133.186L136.864 13.9241H140.804L137.038 19.92H141.267V30H137.646V23.3379H131.013V30H127.364V9.37655Z" fill="white"/>
<path d="M150.241 0L151.778 5.70525L157.483 7.24138L151.778 8.77751L150.241 14.4828L148.705 8.77751L143 7.24138L148.705 5.70525L150.241 0Z" fill="white"/>
</svg>
